<svg width="34" height="34" viewBox="0 0 34 34" fill="none" xmlns="http://www.w3.org/2000/svg">
<path fill-rule="evenodd" clip-rule="evenodd" d="M2.77301 31.225C5.21634 33.6666 9.14301 33.6666 16.9997 33.6666C24.8563 33.6666 28.7847 33.6666 31.2247 31.225C33.6663 28.7866 33.6663 24.8566 33.6663 17C33.6663 9.14331 33.6663 5.21498 31.2247 2.77331C28.7863 0.333313 24.8563 0.333313 16.9997 0.333313C9.14301 0.333313 5.21467 0.333313 2.77301 2.77331C0.333008 5.21665 0.333008 9.14331 0.333008 17C0.333008 24.8566 0.333008 28.785 2.77301 31.225ZM12.833 11.5833C11.7617 11.5833 10.7144 11.901 9.82367 12.4962C8.9329 13.0914 8.23864 13.9373 7.82866 14.9271C7.41869 15.9169 7.31142 17.006 7.52042 18.0567C7.72942 19.1074 8.24531 20.0726 9.00285 20.8301C9.76038 21.5877 10.7255 22.1036 11.7763 22.3126C12.827 22.5216 13.9161 22.4143 14.9059 22.0043C15.8956 21.5944 16.7416 20.9001 17.3368 20.0093C17.932 19.1186 18.2497 18.0713 18.2497 17C18.2497 16.6685 18.3814 16.3505 18.6158 16.1161C18.8502 15.8817 19.1682 15.75 19.4997 15.75C19.8312 15.75 20.1491 15.8817 20.3836 16.1161C20.618 16.3505 20.7497 16.6685 20.7497 17C20.7497 18.5657 20.2854 20.0964 19.4155 21.3982C18.5456 22.7001 17.3092 23.7148 15.8626 24.314C14.416 24.9132 12.8242 25.07 11.2885 24.7645C9.75286 24.4591 8.34225 23.7051 7.23508 22.5979C6.12791 21.4907 5.37392 20.0801 5.06846 18.5444C4.76299 17.0088 4.91977 15.417 5.51896 13.9704C6.11816 12.5238 7.13285 11.2874 8.43474 10.4175C9.73663 9.54762 11.2672 9.08331 12.833 9.08331C13.1645 9.08331 13.4825 9.21501 13.7169 9.44943C13.9513 9.68385 14.083 10.0018 14.083 10.3333C14.083 10.6648 13.9513 10.9828 13.7169 11.2172C13.4825 11.4516 13.1645 11.5833 12.833 11.5833ZM26.583 17C26.583 18.4366 26.0123 19.8143 24.9965 20.8301C23.9807 21.846 22.6029 22.4166 21.1663 22.4166C20.8348 22.4166 20.5169 22.5483 20.2825 22.7828C20.048 23.0172 19.9163 23.3351 19.9163 23.6666C19.9163 23.9982 20.048 24.3161 20.2825 24.5505C20.5169 24.785 20.8348 24.9166 21.1663 24.9166C22.7321 24.9166 24.2627 24.4523 25.5646 23.5824C26.8665 22.7126 27.8812 21.4761 28.4804 20.0296C29.0796 18.583 29.2364 16.9912 28.9309 15.4555C28.6254 13.9198 27.8714 12.5092 26.7643 11.4021C25.6571 10.2949 24.2465 9.5409 22.7108 9.23543C21.1751 8.92996 19.5833 9.08674 18.1368 9.68593C16.6902 10.2851 15.4538 11.2998 14.5839 12.6017C13.714 13.9036 13.2497 15.4342 13.2497 17C13.2497 17.3315 13.3814 17.6494 13.6158 17.8839C13.8502 18.1183 14.1682 18.25 14.4997 18.25C14.8312 18.25 15.1491 18.1183 15.3836 17.8839C15.618 17.6494 15.7497 17.3315 15.7497 17C15.7497 15.5634 16.3204 14.1856 17.3362 13.1698C18.352 12.154 19.7298 11.5833 21.1663 11.5833C22.6029 11.5833 23.9807 12.154 24.9965 13.1698C26.0123 14.1856 26.583 15.5634 26.583 17Z" fill="#633CFF"/>
</svg>
